<?xml version="1.0" encoding="utf-8"?>
<!-- Generator: Adobe Illustrator 20.1.0, SVG Export Plug-In . SVG Version: 6.00 Build 0)  -->
<svg version="1.1" id="Layer_1" xmlns="http://www.w3.org/2000/svg" xmlns:xlink="http://www.w3.org/1999/xlink" x="0px" y="0px"
	 viewBox="0 0 36 36" style="enable-background:new 0 0 36 36;" xml:space="preserve">
<style type="text/css">
	.st0{fill:#E53029;}
	.st1{fill:#FDD900;}
	.st2{fill:#66B44B;}
	.st3{fill:#61AB48;}
	.st4{fill:#FFFFFF;}
	.st5{fill:url(#SVGID_1_);}
	.st6{fill:#F0CE00;}
	.st7{fill:#D92F27;}
</style>
<g>
	<path class="st0" d="M18,0c0,0,10.6-0.5,16.2,10.1c-3,0-17,0-17,0s-3.2-0.1-6,3.8c-0.8,1.6-1.6,3.3-0.7,6.7C9,18.3,3.1,8,3.1,8
		S7.3,0.5,18,0z"/>
	<path class="st1" d="M33.6,27c0,0-4.9,9.4-16.9,8.9c1.5-2.6,8.5-14.8,8.5-14.8s1.7-2.7-0.3-7.1c-1-1.5-2.1-3.1-5.4-3.9
		c2.7,0,14.6,0,14.6,0S38.5,17.5,33.6,27z"/>
	<path class="st2" d="M2.4,27c0,0-5.7-8.9,0.7-19.1c1.5,2.6,8.5,14.8,8.5,14.8s1.5,2.8,6.3,3.3c1.8-0.1,3.7-0.2,6.1-2.7
		c-1.3,2.3-7.3,12.6-7.3,12.6S8.1,36.1,2.4,27z"/>
	<path class="st3" d="M16.7,36l2.4-10c0,0,2.6-0.2,4.8-2.6C22.6,25.7,16.7,36,16.7,36z"/>
	<circle class="st4" cx="17.9" cy="18.1" r="8"/>
	<linearGradient id="SVGID_1_" gradientUnits="userSpaceOnUse" x1="17.9092" y1="11.5554" x2="17.9092" y2="24.3647">
		<stop  offset="0" style="stop-color:#86BBE5"/>
		<stop  offset="1" style="stop-color:#116CB3"/>
	</linearGradient>
	<circle class="st5" cx="17.9" cy="18.1" r="6.7"/>
	<path class="st6" d="M34.1,10.1L24.2,13c0,0-1.5-2.2-4.7-2.9C22.3,10.1,34.1,10.1,34.1,10.1z"/>
	<path class="st7" d="M10.2,20.3C8.8,17.9,3.1,8,3.1,8l7.3,7.2c0,0-0.8,1.5-0.5,3.8L10.2,20.3z"/>
</g>
</svg>
