<?xml version="1.0" encoding="utf-8"?>
<!-- Generator: Adobe Illustrator 20.1.0, SVG Export Plug-In . SVG Version: 6.00 Build 0)  -->
<svg version="1.1" id="Layer_1" xmlns="http://www.w3.org/2000/svg" xmlns:xlink="http://www.w3.org/1999/xlink" x="0px" y="0px"
	 viewBox="0 0 22 22" style="enable-background:new 0 0 22 22;" xml:space="preserve">
<style type="text/css">
	.st0{fill:#FE5F55;}
</style>
<g>
	<path class="st0" d="M11,0C4.9,0,0,4.9,0,11c0,6.1,4.9,11,11,11c6.1,0,11-4.9,11-11S17.1,0,11,0z M15.8,13.8c0.6,0.6,0.6,1.4,0,2
		c-0.3,0.3-0.6,0.4-1,0.4s-0.7-0.1-1-0.4L11,13l-2.8,2.8c-0.3,0.3-0.6,0.4-1,0.4c-0.4,0-0.7-0.1-1-0.4c-0.6-0.6-0.6-1.4,0-2L9,11
		L6.2,8.2c-0.6-0.6-0.6-1.4,0-2s1.4-0.6,2,0L11,9l2.8-2.8c0.6-0.6,1.4-0.6,2,0c0.6,0.6,0.6,1.4,0,2L13,11L15.8,13.8z"/>
</g>
</svg>
