<?xml version="1.0" encoding="utf-8"?>
<!-- Generator: Adobe Illustrator 20.1.0, SVG Export Plug-In . SVG Version: 6.00 Build 0)  -->
<svg version="1.1" id="Layer_1" xmlns="http://www.w3.org/2000/svg" xmlns:xlink="http://www.w3.org/1999/xlink" x="0px" y="0px"
	 viewBox="0 0 36 36" style="enable-background:new 0 0 36 36;" xml:space="preserve">
<style type="text/css">
	.st0{fill:#006EB7;}
	.st1{fill:#161616;}
</style>
<path class="st0" d="M30.8,1c-3.7,0-8,3-8,3S34.9,6,34,19.9H14c0,0-0.3,5.4,4.9,5.4c3.8,0,4.5-3.4,4.5-3.4h10.5
	c0,0-2.8,10.4-14.6,10.4c-2.8,0-3.8-0.2-3.8-0.2s-5,3.9-9.7,3.9s-5.2-5.1-4.5-7.4S4.6,15,15.8,7.3V6.8c0,0-7.6,3.2-13.1,11
	c0,0-0.2-7.6,6.5-11.9c6.2-3.7,12.4-2.1,12.4-2.1S26.8,0,30.9,0c0,0,6.5-0.6,3.1,8l-0.2-0.2C33.9,7.9,36.6,1,30.8,1z"/>
<path class="st1" d="M18.8,10.6c4.8,0,4.6,4.6,4.6,4.6h-9.5C13.9,15.2,13.8,10.6,18.8,10.6z"/>
<path class="st1" d="M5.3,26c0,0,2.4,4.4,9.4,6c0,0-7.2,4.4-10.5,1.3C2.5,30.3,5.3,26,5.3,26z"/>
</svg>
