<?xml version="1.0" encoding="utf-8"?>
<!-- Generator: Adobe Illustrator 20.1.0, SVG Export Plug-In . SVG Version: 6.00 Build 0)  -->
<svg version="1.1" id="Layer_1" xmlns="http://www.w3.org/2000/svg" xmlns:xlink="http://www.w3.org/1999/xlink" x="0px" y="0px"
	 viewBox="0 0 22 22" style="enable-background:new 0 0 22 22;" xml:space="preserve">
<style type="text/css">
	.st0{fill:#8CC63F;}
</style>
<g>
	<g>
		<path class="st0" d="M11-0.1C4.9-0.1-0.1,4.9-0.1,11s5,11.1,11.1,11.1s11.1-5,11.1-11.1S17.1-0.1,11-0.1z M16.1,8.1l-6.2,6.2
			c-0.1,0.1-0.3,0.2-0.5,0.2c-0.2,0-0.4-0.1-0.5-0.2l-3.2-3.2c-0.3-0.3-0.3-0.8,0-1.1c0.3-0.3,0.8-0.3,1.1,0l2.7,2.7L15,7
			c0.3-0.3,0.8-0.3,1.1,0C16.4,7.3,16.4,7.8,16.1,8.1z"/>
	</g>
</g>
</svg>
